<svg width="201" height="52" viewBox="0 0 201 52" fill="none" xmlns="http://www.w3.org/2000/svg">
<path d="M14.1504 16.4668C12.0996 16.4668 10.5117 17.2402 9.38672 18.7871C8.26172 20.3223 7.69922 22.4668 7.69922 25.2207C7.69922 30.9512 9.84961 33.8164 14.1504 33.8164C15.9551 33.8164 18.1406 33.3652 20.707 32.4629V37.0332C18.5977 37.9121 16.2422 38.3516 13.6406 38.3516C9.90234 38.3516 7.04297 37.2207 5.0625 34.959C3.08203 32.6855 2.0918 29.4277 2.0918 25.1855C2.0918 22.5137 2.57812 20.1758 3.55078 18.1719C4.52344 16.1562 5.91797 14.6152 7.73438 13.5488C9.5625 12.4707 11.7012 11.9316 14.1504 11.9316C16.6465 11.9316 19.1543 12.5352 21.6738 13.7422L19.916 18.1719C18.9551 17.7148 17.9883 17.3164 17.0156 16.9766C16.043 16.6367 15.0879 16.4668 14.1504 16.4668ZM35.9473 23.5684H46.1426V36.8926C44.4902 37.4316 42.9316 37.8066 41.4668 38.0176C40.0137 38.2402 38.5254 38.3516 37.002 38.3516C33.123 38.3516 30.1582 37.2148 28.1074 34.9414C26.0684 32.6562 25.0488 29.3809 25.0488 25.1152C25.0488 20.9668 26.2324 17.7324 28.5996 15.4121C30.9785 13.0918 34.2715 11.9316 38.4785 11.9316C41.1152 11.9316 43.6582 12.459 46.1074 13.5137L44.2969 17.873C42.4219 16.9355 40.4707 16.4668 38.4434 16.4668C36.0879 16.4668 34.2012 17.2578 32.7832 18.8398C31.3652 20.4219 30.6562 22.5488 30.6562 25.2207C30.6562 28.0098 31.2246 30.1426 32.3613 31.6191C33.5098 33.084 35.1738 33.8164 37.3535 33.8164C38.4902 33.8164 39.6445 33.6992 40.8164 33.4648V28.1035H35.9473V23.5684ZM68.9941 38H63.6328L68.0977 16.8359H61.9102L62.877 12.3008H80.6309L79.6641 16.8359H73.459L68.9941 38ZM92.8828 17.9785C93.5742 17.9785 94.1367 18.043 94.5703 18.1719L93.4102 23.2695C92.8828 23.082 92.2969 22.9883 91.6523 22.9883C90.293 22.9883 89.0977 23.5273 88.0664 24.6055C87.0469 25.6719 86.3203 27.207 85.8867 29.2109L84.0234 38H78.7324L82.8984 18.3477H86.9414L86.5723 21.9863H86.6777C88.4004 19.3145 90.4688 17.9785 92.8828 17.9785ZM100.371 38.3516C98.6484 38.3516 97.2891 37.7305 96.293 36.4883C95.3086 35.2344 94.8164 33.4824 94.8164 31.2324C94.8164 28.9121 95.2383 26.7031 96.082 24.6055C96.9258 22.4961 98.0332 20.8672 99.4043 19.7188C100.775 18.5586 102.281 17.9785 103.922 17.9785C105.059 17.9785 106.037 18.2246 106.857 18.7168C107.689 19.209 108.334 19.9238 108.791 20.8613H108.932L109.934 18.3477H114.012L109.828 38H105.803L106.049 35.4512H105.979C104.408 37.3848 102.539 38.3516 100.371 38.3516ZM102.445 34.0801C103.254 34.0801 104.033 33.6875 104.783 32.9023C105.533 32.1172 106.137 31.0566 106.594 29.7207C107.051 28.373 107.279 26.8496 107.279 25.1504C107.279 24.3184 107.051 23.6328 106.594 23.0938C106.148 22.543 105.557 22.2676 104.818 22.2676C104.021 22.2676 103.26 22.6895 102.533 23.5332C101.818 24.377 101.244 25.4902 100.811 26.873C100.389 28.2559 100.178 29.627 100.178 30.9863C100.178 32.0176 100.371 32.791 100.758 33.3066C101.156 33.8223 101.719 34.0801 102.445 34.0801ZM123.539 38.3516C121.184 38.3516 119.373 37.7246 118.107 36.4707C116.854 35.2051 116.227 33.4238 116.227 31.127C116.227 28.6426 116.66 26.3867 117.527 24.3594C118.406 22.3203 119.637 20.75 121.219 19.6484C122.801 18.5352 124.605 17.9785 126.633 17.9785C128.766 17.9785 130.688 18.4004 132.398 19.2441L130.781 23.2695C130.148 23 129.527 22.7656 128.918 22.5664C128.309 22.3672 127.617 22.2676 126.844 22.2676C125.848 22.2676 124.945 22.6426 124.137 23.3926C123.34 24.1426 122.713 25.1738 122.256 26.4863C121.811 27.7871 121.588 29.1875 121.588 30.6875C121.588 31.8125 121.852 32.6621 122.379 33.2363C122.918 33.7988 123.662 34.0801 124.611 34.0801C125.502 34.0801 126.328 33.9453 127.09 33.6758C127.852 33.3945 128.637 33.0488 129.445 32.6387V36.9629C127.664 37.8887 125.695 38.3516 123.539 38.3516ZM148.219 18.3477H154.266L145.512 27.207L150.521 38H144.615L141.398 30.6172L139.289 31.8828L137.988 38H132.697L138.498 10.6484H143.789L141.188 22.8477C141.094 23.3281 140.924 24.0137 140.678 24.9043L140.186 26.6973H140.256L148.219 18.3477ZM164.742 21.793C163.711 21.793 162.738 22.2617 161.824 23.1992C160.91 24.1367 160.312 25.2793 160.031 26.627H160.822C162.639 26.627 164.051 26.3457 165.059 25.7832C166.078 25.209 166.588 24.4355 166.588 23.4629C166.588 22.3496 165.973 21.793 164.742 21.793ZM161.859 38.3516C159.398 38.3516 157.488 37.6895 156.129 36.3652C154.77 35.041 154.09 33.1719 154.09 30.7578C154.09 28.332 154.57 26.123 155.531 24.1309C156.504 22.127 157.816 20.6035 159.469 19.5605C161.121 18.5059 162.99 17.9785 165.076 17.9785C167.15 17.9785 168.768 18.459 169.928 19.4199C171.088 20.3691 171.668 21.6758 171.668 23.3398C171.668 25.5312 170.689 27.2246 168.732 28.4199C166.775 29.6035 163.98 30.1953 160.348 30.1953H159.451L159.416 30.5645V30.916C159.416 31.9824 159.715 32.8262 160.312 33.4473C160.922 34.0566 161.789 34.3613 162.914 34.3613C163.934 34.3613 164.859 34.25 165.691 34.0273C166.523 33.8047 167.531 33.4121 168.715 32.8496V36.8398C166.699 37.8477 164.414 38.3516 161.859 38.3516ZM187.383 17.9785C188.074 17.9785 188.637 18.043 189.07 18.1719L187.91 23.2695C187.383 23.082 186.797 22.9883 186.152 22.9883C184.793 22.9883 183.598 23.5273 182.566 24.6055C181.547 25.6719 180.82 27.207 180.387 29.2109L178.523 38H173.232L177.398 18.3477H181.441L181.072 21.9863H181.178C182.9 19.3145 184.969 17.9785 187.383 17.9785Z" fill="#1B2430"/>
<path d="M51.3809 35.8027C51.3809 34.9473 51.6035 34.291 52.0488 33.834C52.4941 33.377 53.1387 33.1484 53.9824 33.1484C54.8379 33.1484 55.4883 33.3887 55.9336 33.8691C56.3789 34.3379 56.6016 34.9824 56.6016 35.8027C56.6016 36.6348 56.373 37.2969 55.916 37.7891C55.4707 38.2695 54.8262 38.5098 53.9824 38.5098C53.1387 38.5098 52.4941 38.2695 52.0488 37.7891C51.6035 37.3086 51.3809 36.6465 51.3809 35.8027Z" fill="#444444"/>
</svg>
