<svg width="151" height="40" viewBox="0 0 151 40" fill="none" xmlns="http://www.w3.org/2000/svg">
<path d="M11.0059 13.252C9.41081 13.252 8.17578 13.8535 7.30078 15.0566C6.42578 16.2507 5.98828 17.9186 5.98828 20.0605C5.98828 24.5176 7.66081 26.7461 11.0059 26.7461C12.4095 26.7461 14.1094 26.3952 16.1055 25.6934V29.248C14.4648 29.9316 12.6328 30.2734 10.6094 30.2734C7.70182 30.2734 5.47786 29.3939 3.9375 27.6348C2.39714 25.8665 1.62695 23.3327 1.62695 20.0332C1.62695 17.9551 2.00521 16.1367 2.76172 14.5781C3.51823 13.0104 4.60286 11.8118 6.01562 10.9824C7.4375 10.1439 9.10091 9.72461 11.0059 9.72461C12.9473 9.72461 14.8978 10.194 16.8574 11.1328L15.4902 14.5781C14.7428 14.2227 13.9909 13.9128 13.2344 13.6484C12.4779 13.3841 11.735 13.252 11.0059 13.252ZM27.959 18.7754H35.8887V29.1387C34.6035 29.5579 33.3913 29.8496 32.252 30.0137C31.1217 30.1868 29.9642 30.2734 28.7793 30.2734C25.7624 30.2734 23.4564 29.3893 21.8613 27.6211C20.2754 25.8438 19.4824 23.2962 19.4824 19.9785C19.4824 16.752 20.403 14.2363 22.2441 12.4316C24.0944 10.627 26.6556 9.72461 29.9277 9.72461C31.9785 9.72461 33.9564 10.1348 35.8613 10.9551L34.4531 14.3457C32.9948 13.6165 31.4772 13.252 29.9004 13.252C28.0684 13.252 26.6009 13.8672 25.498 15.0977C24.3952 16.3281 23.8438 17.9824 23.8438 20.0605C23.8438 22.2298 24.2858 23.8887 25.1699 25.0371C26.0632 26.1764 27.3574 26.7461 29.0527 26.7461C29.9368 26.7461 30.8346 26.6549 31.7461 26.4727V22.3027H27.959V18.7754ZM39.9629 28.291C39.9629 27.6257 40.1361 27.1152 40.4824 26.7598C40.8288 26.4043 41.3301 26.2266 41.9863 26.2266C42.6517 26.2266 43.1576 26.4134 43.5039 26.7871C43.8503 27.1517 44.0234 27.653 44.0234 28.291C44.0234 28.9382 43.8457 29.4531 43.4902 29.8359C43.1439 30.2096 42.6426 30.3965 41.9863 30.3965C41.3301 30.3965 40.8288 30.2096 40.4824 29.8359C40.1361 29.4622 39.9629 28.9473 39.9629 28.291Z" fill="#444444"/>
<path d="M53.6621 30H49.4922L52.9648 13.5391H48.1523L48.9043 10.0117H62.7129L61.9609 13.5391H57.1348L53.6621 30ZM72.2422 14.4277C72.7799 14.4277 73.2174 14.4779 73.5547 14.5781L72.6523 18.543C72.2422 18.3971 71.7865 18.3242 71.2852 18.3242C70.2279 18.3242 69.2982 18.7435 68.4961 19.582C67.7031 20.4115 67.138 21.6055 66.8008 23.1641L65.3516 30H61.2363L64.4766 14.7148H67.6211L67.334 17.5449H67.416C68.7559 15.4668 70.3646 14.4277 72.2422 14.4277ZM78.0664 30.2734C76.7266 30.2734 75.6693 29.7904 74.8945 28.8242C74.1289 27.849 73.7461 26.4863 73.7461 24.7363C73.7461 22.9316 74.0742 21.2135 74.7305 19.582C75.3867 17.9414 76.248 16.6745 77.3145 15.7812C78.3809 14.8789 79.5521 14.4277 80.8281 14.4277C81.7122 14.4277 82.4733 14.6191 83.1113 15.002C83.7585 15.3848 84.2598 15.9408 84.6152 16.6699H84.7246L85.5039 14.7148H88.6758L85.4219 30H82.291L82.4824 28.0176H82.4277C81.2064 29.5215 79.7526 30.2734 78.0664 30.2734ZM79.6797 26.9512C80.3086 26.9512 80.9147 26.6458 81.498 26.0352C82.0814 25.4245 82.5508 24.5996 82.9062 23.5605C83.2617 22.5124 83.4395 21.3275 83.4395 20.0059C83.4395 19.3587 83.2617 18.8255 82.9062 18.4062C82.5599 17.9779 82.0996 17.7637 81.5254 17.7637C80.9056 17.7637 80.3132 18.0918 79.748 18.748C79.1921 19.4043 78.7454 20.2702 78.4082 21.3457C78.0801 22.4212 77.916 23.4876 77.916 24.5449C77.916 25.347 78.0664 25.9486 78.3672 26.3496C78.6771 26.7507 79.1146 26.9512 79.6797 26.9512ZM96.0859 30.2734C94.2539 30.2734 92.8457 29.7858 91.8613 28.8105C90.8861 27.8262 90.3984 26.4408 90.3984 24.6543C90.3984 22.722 90.7357 20.9674 91.4102 19.3906C92.0938 17.8047 93.0508 16.5833 94.2812 15.7266C95.5117 14.8607 96.9154 14.4277 98.4922 14.4277C100.151 14.4277 101.646 14.7559 102.977 15.4121L101.719 18.543C101.227 18.3333 100.743 18.151 100.27 17.9961C99.7956 17.8411 99.2578 17.7637 98.6562 17.7637C97.8815 17.7637 97.1797 18.0553 96.5508 18.6387C95.931 19.222 95.4434 20.0241 95.0879 21.0449C94.7415 22.0566 94.5684 23.1458 94.5684 24.3125C94.5684 25.1875 94.7734 25.8483 95.1836 26.2949C95.6029 26.7324 96.1816 26.9512 96.9199 26.9512C97.6126 26.9512 98.2552 26.8464 98.8477 26.6367C99.4401 26.418 100.051 26.1491 100.68 25.8301V29.1934C99.2943 29.9134 97.763 30.2734 96.0859 30.2734ZM115.281 14.7148H119.984L113.176 21.6055L117.072 30H112.479L109.977 24.2578L108.336 25.2422L107.324 30H103.209L107.721 8.72656H111.836L109.812 18.2148C109.74 18.5885 109.607 19.1217 109.416 19.8145L109.033 21.209H109.088L115.281 14.7148ZM128.133 17.3945C127.331 17.3945 126.574 17.7591 125.863 18.4883C125.152 19.2174 124.688 20.1061 124.469 21.1543H125.084C126.497 21.1543 127.595 20.9355 128.379 20.498C129.172 20.0514 129.568 19.4499 129.568 18.6934C129.568 17.8275 129.09 17.3945 128.133 17.3945ZM125.891 30.2734C123.977 30.2734 122.491 29.7585 121.434 28.7285C120.376 27.6986 119.848 26.2448 119.848 24.3672C119.848 22.4805 120.221 20.7624 120.969 19.2129C121.725 17.6543 122.746 16.4694 124.031 15.6582C125.316 14.8379 126.77 14.4277 128.393 14.4277C130.006 14.4277 131.264 14.8014 132.166 15.5488C133.068 16.2871 133.52 17.3034 133.52 18.5977C133.52 20.3021 132.758 21.6191 131.236 22.5488C129.714 23.4694 127.54 23.9297 124.715 23.9297H124.018L123.99 24.2168V24.4902C123.99 25.3197 124.223 25.9759 124.688 26.459C125.161 26.9329 125.836 27.1699 126.711 27.1699C127.504 27.1699 128.224 27.0833 128.871 26.9102C129.518 26.737 130.302 26.4316 131.223 25.9941V29.0977C129.655 29.8815 127.878 30.2734 125.891 30.2734ZM145.742 14.4277C146.28 14.4277 146.717 14.4779 147.055 14.5781L146.152 18.543C145.742 18.3971 145.286 18.3242 144.785 18.3242C143.728 18.3242 142.798 18.7435 141.996 19.582C141.203 20.4115 140.638 21.6055 140.301 23.1641L138.852 30H134.736L137.977 14.7148H141.121L140.834 17.5449H140.916C142.256 15.4668 143.865 14.4277 145.742 14.4277Z" fill="#DA0037"/>
</svg>
